<svg xmlns="http://www.w3.org/2000/svg" xmlns:xlink="http://www.w3.org/1999/xlink" width="300" zoomAndPan="magnify" viewBox="0 0 224.87999 30.000001" height="40" preserveAspectRatio="xMidYMid meet" version="1.0"><defs><g/><clipPath id="944ba6eb2f"><path d="M 175 22 L 176 22 L 176 23 L 175 23 Z M 175 22 " clip-rule="nonzero"/></clipPath><clipPath id="f4edcd3176"><path d="M 177.667969 6.730469 L 179.300781 29.171875 L 172.785156 29.644531 L 171.152344 7.207031 Z M 177.667969 6.730469 " clip-rule="nonzero"/></clipPath><clipPath id="a9e2bc0666"><path d="M 177.667969 6.730469 L 179.300781 29.171875 L 172.785156 29.644531 L 171.152344 7.207031 Z M 177.667969 6.730469 " clip-rule="nonzero"/></clipPath><clipPath id="aedeca609c"><path d="M 175 23 L 176 23 L 176 24 L 175 24 Z M 175 23 " clip-rule="nonzero"/></clipPath><clipPath id="58a5a421c5"><path d="M 177.667969 6.730469 L 179.300781 29.171875 L 172.785156 29.644531 L 171.152344 7.207031 Z M 177.667969 6.730469 " clip-rule="nonzero"/></clipPath><clipPath id="b9a125765e"><path d="M 177.667969 6.730469 L 179.300781 29.171875 L 172.785156 29.644531 L 171.152344 7.207031 Z M 177.667969 6.730469 " clip-rule="nonzero"/></clipPath><clipPath id="7bb5b47db4"><path d="M 175 19 L 176 19 L 176 20 L 175 20 Z M 175 19 " clip-rule="nonzero"/></clipPath><clipPath id="89e88e65e6"><path d="M 177.667969 6.730469 L 179.300781 29.171875 L 172.785156 29.644531 L 171.152344 7.207031 Z M 177.667969 6.730469 " clip-rule="nonzero"/></clipPath><clipPath id="994188d939"><path d="M 177.667969 6.730469 L 179.300781 29.171875 L 172.785156 29.644531 L 171.152344 7.207031 Z M 177.667969 6.730469 " clip-rule="nonzero"/></clipPath><clipPath id="29c6529078"><path d="M 175 11 L 176 11 L 176 12 L 175 12 Z M 175 11 " clip-rule="nonzero"/></clipPath><clipPath id="c73d3ecb68"><path d="M 177.667969 6.730469 L 179.300781 29.171875 L 172.785156 29.644531 L 171.152344 7.207031 Z M 177.667969 6.730469 " clip-rule="nonzero"/></clipPath><clipPath id="85df816b7e"><path d="M 177.667969 6.730469 L 179.300781 29.171875 L 172.785156 29.644531 L 171.152344 7.207031 Z M 177.667969 6.730469 " clip-rule="nonzero"/></clipPath><clipPath id="8d426b2894"><path d="M 174 7 L 175 7 L 175 8 L 174 8 Z M 174 7 " clip-rule="nonzero"/></clipPath><clipPath id="1a282e5efa"><path d="M 177.667969 6.730469 L 179.300781 29.171875 L 172.785156 29.644531 L 171.152344 7.207031 Z M 177.667969 6.730469 " clip-rule="nonzero"/></clipPath><clipPath id="635f4f38cb"><path d="M 177.667969 6.730469 L 179.300781 29.171875 L 172.785156 29.644531 L 171.152344 7.207031 Z M 177.667969 6.730469 " clip-rule="nonzero"/></clipPath><clipPath id="a2bd907bf9"><path d="M 175 19 L 176 19 L 176 20 L 175 20 Z M 175 19 " clip-rule="nonzero"/></clipPath><clipPath id="bc80638c9b"><path d="M 177.667969 6.730469 L 179.300781 29.171875 L 172.785156 29.644531 L 171.152344 7.207031 Z M 177.667969 6.730469 " clip-rule="nonzero"/></clipPath><clipPath id="867918cb93"><path d="M 177.667969 6.730469 L 179.300781 29.171875 L 172.785156 29.644531 L 171.152344 7.207031 Z M 177.667969 6.730469 " clip-rule="nonzero"/></clipPath><clipPath id="b861f88d8f"><path d="M 175 8 L 176 8 L 176 9 L 175 9 Z M 175 8 " clip-rule="nonzero"/></clipPath><clipPath id="67e4f025cd"><path d="M 177.667969 6.730469 L 179.300781 29.171875 L 172.785156 29.644531 L 171.152344 7.207031 Z M 177.667969 6.730469 " clip-rule="nonzero"/></clipPath><clipPath id="97300ff2e5"><path d="M 177.667969 6.730469 L 179.300781 29.171875 L 172.785156 29.644531 L 171.152344 7.207031 Z M 177.667969 6.730469 " clip-rule="nonzero"/></clipPath><clipPath id="4c510e895f"><path d="M 175 22 L 176 22 L 176 23 L 175 23 Z M 175 22 " clip-rule="nonzero"/></clipPath><clipPath id="627357fefb"><path d="M 177.667969 6.730469 L 179.300781 29.171875 L 172.785156 29.644531 L 171.152344 7.207031 Z M 177.667969 6.730469 " clip-rule="nonzero"/></clipPath><clipPath id="cb18bde9bc"><path d="M 177.667969 6.730469 L 179.300781 29.171875 L 172.785156 29.644531 L 171.152344 7.207031 Z M 177.667969 6.730469 " clip-rule="nonzero"/></clipPath><clipPath id="2ffea8bdd2"><path d="M 175 25 L 176 25 L 176 26 L 175 26 Z M 175 25 " clip-rule="nonzero"/></clipPath><clipPath id="90f76d13d4"><path d="M 177.667969 6.730469 L 179.300781 29.171875 L 172.785156 29.644531 L 171.152344 7.207031 Z M 177.667969 6.730469 " clip-rule="nonzero"/></clipPath><clipPath id="c0c60bef6d"><path d="M 177.667969 6.730469 L 179.300781 29.171875 L 172.785156 29.644531 L 171.152344 7.207031 Z M 177.667969 6.730469 " clip-rule="nonzero"/></clipPath><clipPath id="35c3edbf92"><path d="M 178 25 L 179 25 L 179 26 L 178 26 Z M 178 25 " clip-rule="nonzero"/></clipPath><clipPath id="9293f37d0c"><path d="M 177.667969 6.730469 L 179.300781 29.171875 L 172.785156 29.644531 L 171.152344 7.207031 Z M 177.667969 6.730469 " clip-rule="nonzero"/></clipPath><clipPath id="cd84e13395"><path d="M 177.667969 6.730469 L 179.300781 29.171875 L 172.785156 29.644531 L 171.152344 7.207031 Z M 177.667969 6.730469 " clip-rule="nonzero"/></clipPath><clipPath id="1f0211cdd6"><path d="M 175 26 L 176 26 L 176 27 L 175 27 Z M 175 26 " clip-rule="nonzero"/></clipPath><clipPath id="45a7fd4e27"><path d="M 177.667969 6.730469 L 179.300781 29.171875 L 172.785156 29.644531 L 171.152344 7.207031 Z M 177.667969 6.730469 " clip-rule="nonzero"/></clipPath><clipPath id="7411b13367"><path d="M 177.667969 6.730469 L 179.300781 29.171875 L 172.785156 29.644531 L 171.152344 7.207031 Z M 177.667969 6.730469 " clip-rule="nonzero"/></clipPath><clipPath id="987234dc2e"><path d="M 174 6 L 180 6 L 180 29 L 174 29 Z M 174 6 " clip-rule="nonzero"/></clipPath><clipPath id="fcf3a82ca9"><path d="M 177.667969 6.730469 L 179.300781 29.171875 L 172.785156 29.644531 L 171.152344 7.207031 Z M 177.667969 6.730469 " clip-rule="nonzero"/></clipPath><clipPath id="2a1fdfd6c9"><path d="M 177.667969 6.730469 L 179.300781 29.171875 L 172.785156 29.644531 L 171.152344 7.207031 Z M 177.667969 6.730469 " clip-rule="nonzero"/></clipPath><clipPath id="fc41158c19"><path d="M 178 26 L 179 26 L 179 27 L 178 27 Z M 178 26 " clip-rule="nonzero"/></clipPath><clipPath id="3064853b6c"><path d="M 177.667969 6.730469 L 179.300781 29.171875 L 172.785156 29.644531 L 171.152344 7.207031 Z M 177.667969 6.730469 " clip-rule="nonzero"/></clipPath><clipPath id="8d7a093400"><path d="M 177.667969 6.730469 L 179.300781 29.171875 L 172.785156 29.644531 L 171.152344 7.207031 Z M 177.667969 6.730469 " clip-rule="nonzero"/></clipPath><clipPath id="d65b635221"><path d="M 175 27 L 176 27 L 176 28 L 175 28 Z M 175 27 " clip-rule="nonzero"/></clipPath><clipPath id="8374eed971"><path d="M 177.667969 6.730469 L 179.300781 29.171875 L 172.785156 29.644531 L 171.152344 7.207031 Z M 177.667969 6.730469 " clip-rule="nonzero"/></clipPath><clipPath id="34513f1680"><path d="M 177.667969 6.730469 L 179.300781 29.171875 L 172.785156 29.644531 L 171.152344 7.207031 Z M 177.667969 6.730469 " clip-rule="nonzero"/></clipPath><clipPath id="0816f46a7b"><path d="M 176 26 L 177 26 L 177 27 L 176 27 Z M 176 26 " clip-rule="nonzero"/></clipPath><clipPath id="209909311e"><path d="M 177.667969 6.730469 L 179.300781 29.171875 L 172.785156 29.644531 L 171.152344 7.207031 Z M 177.667969 6.730469 " clip-rule="nonzero"/></clipPath><clipPath id="fd895fa702"><path d="M 177.667969 6.730469 L 179.300781 29.171875 L 172.785156 29.644531 L 171.152344 7.207031 Z M 177.667969 6.730469 " clip-rule="nonzero"/></clipPath><clipPath id="89acc62f78"><path d="M 178 25 L 179 25 L 179 26 L 178 26 Z M 178 25 " clip-rule="nonzero"/></clipPath><clipPath id="d3c0983d8b"><path d="M 177.667969 6.730469 L 179.300781 29.171875 L 172.785156 29.644531 L 171.152344 7.207031 Z M 177.667969 6.730469 " clip-rule="nonzero"/></clipPath><clipPath id="c1e93c1103"><path d="M 177.667969 6.730469 L 179.300781 29.171875 L 172.785156 29.644531 L 171.152344 7.207031 Z M 177.667969 6.730469 " clip-rule="nonzero"/></clipPath><clipPath id="e2e15c4db7"><path d="M 174 27 L 175 27 L 175 28 L 174 28 Z M 174 27 " clip-rule="nonzero"/></clipPath><clipPath id="390efa5786"><path d="M 177.667969 6.730469 L 179.300781 29.171875 L 172.785156 29.644531 L 171.152344 7.207031 Z M 177.667969 6.730469 " clip-rule="nonzero"/></clipPath><clipPath id="8c75e44c28"><path d="M 177.667969 6.730469 L 179.300781 29.171875 L 172.785156 29.644531 L 171.152344 7.207031 Z M 177.667969 6.730469 " clip-rule="nonzero"/></clipPath><clipPath id="4939057853"><path d="M 173 26 L 174 26 L 174 27 L 173 27 Z M 173 26 " clip-rule="nonzero"/></clipPath><clipPath id="a25554d0d5"><path d="M 177.667969 6.730469 L 179.300781 29.171875 L 172.785156 29.644531 L 171.152344 7.207031 Z M 177.667969 6.730469 " clip-rule="nonzero"/></clipPath><clipPath id="b44ee630ba"><path d="M 177.667969 6.730469 L 179.300781 29.171875 L 172.785156 29.644531 L 171.152344 7.207031 Z M 177.667969 6.730469 " clip-rule="nonzero"/></clipPath><clipPath id="765a2133e3"><path d="M 172 25 L 173 25 L 173 26 L 172 26 Z M 172 25 " clip-rule="nonzero"/></clipPath><clipPath id="49a6bed710"><path d="M 177.667969 6.730469 L 179.300781 29.171875 L 172.785156 29.644531 L 171.152344 7.207031 Z M 177.667969 6.730469 " clip-rule="nonzero"/></clipPath><clipPath id="1a6e79d4b9"><path d="M 177.667969 6.730469 L 179.300781 29.171875 L 172.785156 29.644531 L 171.152344 7.207031 Z M 177.667969 6.730469 " clip-rule="nonzero"/></clipPath><clipPath id="ea2ef83d68"><path d="M 174 27 L 175 27 L 175 28 L 174 28 Z M 174 27 " clip-rule="nonzero"/></clipPath><clipPath id="a2aa0575a4"><path d="M 177.667969 6.730469 L 179.300781 29.171875 L 172.785156 29.644531 L 171.152344 7.207031 Z M 177.667969 6.730469 " clip-rule="nonzero"/></clipPath><clipPath id="47c36a287f"><path d="M 177.667969 6.730469 L 179.300781 29.171875 L 172.785156 29.644531 L 171.152344 7.207031 Z M 177.667969 6.730469 " clip-rule="nonzero"/></clipPath><clipPath id="c8a201ff36"><path d="M 175 27 L 176 27 L 176 28 L 175 28 Z M 175 27 " clip-rule="nonzero"/></clipPath><clipPath id="3989107af0"><path d="M 177.667969 6.730469 L 179.300781 29.171875 L 172.785156 29.644531 L 171.152344 7.207031 Z M 177.667969 6.730469 " clip-rule="nonzero"/></clipPath><clipPath id="4017b3e975"><path d="M 177.667969 6.730469 L 179.300781 29.171875 L 172.785156 29.644531 L 171.152344 7.207031 Z M 177.667969 6.730469 " clip-rule="nonzero"/></clipPath><clipPath id="f818f95385"><path d="M 175 28 L 176 28 L 176 29 L 175 29 Z M 175 28 " clip-rule="nonzero"/></clipPath><clipPath id="93a5496bb6"><path d="M 177.667969 6.730469 L 179.300781 29.171875 L 172.785156 29.644531 L 171.152344 7.207031 Z M 177.667969 6.730469 " clip-rule="nonzero"/></clipPath><clipPath id="32bee56084"><path d="M 177.667969 6.730469 L 179.300781 29.171875 L 172.785156 29.644531 L 171.152344 7.207031 Z M 177.667969 6.730469 " clip-rule="nonzero"/></clipPath><clipPath id="358c9e8e0b"><path d="M 172 25 L 176 25 L 176 29.03125 L 172 29.03125 Z M 172 25 " clip-rule="nonzero"/></clipPath><clipPath id="866cdab164"><path d="M 177.667969 6.730469 L 179.300781 29.171875 L 172.785156 29.644531 L 171.152344 7.207031 Z M 177.667969 6.730469 " clip-rule="nonzero"/></clipPath><clipPath id="a69c0dd1fb"><path d="M 177.667969 6.730469 L 179.300781 29.171875 L 172.785156 29.644531 L 171.152344 7.207031 Z M 177.667969 6.730469 " clip-rule="nonzero"/></clipPath><clipPath id="20038eae13"><path d="M 175 29 L 176 29 L 176 29.03125 L 175 29.03125 Z M 175 29 " clip-rule="nonzero"/></clipPath><clipPath id="e70ec88869"><path d="M 177.667969 6.730469 L 179.300781 29.171875 L 172.785156 29.644531 L 171.152344 7.207031 Z M 177.667969 6.730469 " clip-rule="nonzero"/></clipPath><clipPath id="66ebb90d58"><path d="M 177.667969 6.730469 L 179.300781 29.171875 L 172.785156 29.644531 L 171.152344 7.207031 Z M 177.667969 6.730469 " clip-rule="nonzero"/></clipPath><clipPath id="372e0459fc"><path d="M 175 28 L 176 28 L 176 29 L 175 29 Z M 175 28 " clip-rule="nonzero"/></clipPath><clipPath id="5efba6dd18"><path d="M 177.667969 6.730469 L 179.300781 29.171875 L 172.785156 29.644531 L 171.152344 7.207031 Z M 177.667969 6.730469 " clip-rule="nonzero"/></clipPath><clipPath id="510cb47295"><path d="M 177.667969 6.730469 L 179.300781 29.171875 L 172.785156 29.644531 L 171.152344 7.207031 Z M 177.667969 6.730469 " clip-rule="nonzero"/></clipPath><clipPath id="fa4f880727"><path d="M 175 29 L 176 29 L 176 29.03125 L 175 29.03125 Z M 175 29 " clip-rule="nonzero"/></clipPath><clipPath id="0409bab402"><path d="M 177.667969 6.730469 L 179.300781 29.171875 L 172.785156 29.644531 L 171.152344 7.207031 Z M 177.667969 6.730469 " clip-rule="nonzero"/></clipPath><clipPath id="e829fc8681"><path d="M 177.667969 6.730469 L 179.300781 29.171875 L 172.785156 29.644531 L 171.152344 7.207031 Z M 177.667969 6.730469 " clip-rule="nonzero"/></clipPath><clipPath id="c854acaa0f"><path d="M 175 28 L 176 28 L 176 29 L 175 29 Z M 175 28 " clip-rule="nonzero"/></clipPath><clipPath id="5e4e0ee8f9"><path d="M 177.667969 6.730469 L 179.300781 29.171875 L 172.785156 29.644531 L 171.152344 7.207031 Z M 177.667969 6.730469 " clip-rule="nonzero"/></clipPath><clipPath id="b4c5e53925"><path d="M 177.667969 6.730469 L 179.300781 29.171875 L 172.785156 29.644531 L 171.152344 7.207031 Z M 177.667969 6.730469 " clip-rule="nonzero"/></clipPath></defs><g clip-path="url(#944ba6eb2f)"><g clip-path="url(#f4edcd3176)"><g clip-path="url(#a9e2bc0666)"><path fill="#ffffff" d="M 175.960938 22.460938 C 175.960938 22.46875 175.960938 22.46875 175.960938 22.472656 C 175.972656 22.476562 175.980469 22.484375 175.984375 22.488281 Z M 175.960938 22.460938 " fill-opacity="1" fill-rule="nonzero"/></g></g></g><g clip-path="url(#aedeca609c)"><g clip-path="url(#58a5a421c5)"><g clip-path="url(#b9a125765e)"><path fill="#ffffff" d="M 175.9375 23.792969 C 175.941406 23.796875 175.941406 23.796875 175.933594 23.800781 C 175.941406 23.800781 175.945312 23.800781 175.9375 23.792969 Z M 175.9375 23.792969 " fill-opacity="1" fill-rule="nonzero"/></g></g></g><g clip-path="url(#7bb5b47db4)"><g clip-path="url(#89e88e65e6)"><g clip-path="url(#994188d939)"><path fill="#ffffff" d="M 175.785156 19.410156 C 175.785156 19.394531 175.78125 19.390625 175.777344 19.386719 C 175.777344 19.390625 175.777344 19.398438 175.785156 19.410156 Z M 175.785156 19.410156 " fill-opacity="1" fill-rule="nonzero"/></g></g></g><g clip-path="url(#29c6529078)"><g clip-path="url(#c73d3ecb68)"><g clip-path="url(#85df816b7e)"><path fill="#ffffff" d="M 175.375 11.792969 C 175.375 11.792969 175.375 11.796875 175.375 11.796875 C 175.375 11.792969 175.378906 11.789062 175.378906 11.785156 Z M 175.375 11.792969 " fill-opacity="1" fill-rule="nonzero"/><path fill="#ffffff" d="M 175.390625 11.820312 C 175.386719 11.847656 175.378906 11.8125 175.375 11.796875 C 175.367188 11.832031 175.367188 11.863281 175.375 11.894531 C 175.386719 11.894531 175.382812 11.835938 175.390625 11.820312 Z M 175.390625 11.820312 " fill-opacity="1" fill-rule="nonzero"/></g></g></g><g clip-path="url(#8d426b2894)"><g clip-path="url(#1a282e5efa)"><g clip-path="url(#635f4f38cb)"><path fill="#ffffff" d="M 174.808594 7.359375 L 174.820312 7.371094 C 174.816406 7.363281 174.8125 7.359375 174.808594 7.359375 Z M 174.808594 7.359375 " fill-opacity="1" fill-rule="nonzero"/></g></g></g><g clip-path="url(#a2bd907bf9)"><g clip-path="url(#bc80638c9b)"><g clip-path="url(#867918cb93)"><path fill="#ffffff" d="M 175.105469 19.5625 C 175.105469 19.558594 175.101562 19.550781 175.097656 19.546875 C 175.097656 19.554688 175.105469 19.558594 175.105469 19.5625 Z M 175.105469 19.5625 " fill-opacity="1" fill-rule="nonzero"/></g></g></g><g clip-path="url(#b861f88d8f)"><g clip-path="url(#67e4f025cd)"><g clip-path="url(#97300ff2e5)"><path fill="#ffffff" d="M 175.003906 8.066406 L 175.027344 8.070312 C 175.019531 8.066406 175.011719 8.0625 175.003906 8.066406 Z M 175.003906 8.066406 " fill-opacity="1" fill-rule="nonzero"/></g></g></g><g clip-path="url(#4c510e895f)"><g clip-path="url(#627357fefb)"><g clip-path="url(#cb18bde9bc)"><path fill="#ffffff" d="M 175.984375 22.488281 L 175.996094 22.496094 C 175.992188 22.492188 175.992188 22.492188 175.984375 22.488281 Z M 175.984375 22.488281 " fill-opacity="1" fill-rule="nonzero"/></g></g></g><g clip-path="url(#2ffea8bdd2)"><g clip-path="url(#90f76d13d4)"><g clip-path="url(#c0c60bef6d)"><path fill="#ffffff" d="M 175.945312 25.019531 C 175.941406 25.019531 175.933594 25.027344 175.929688 25.027344 C 175.929688 25.027344 175.929688 25.03125 175.929688 25.03125 Z M 175.945312 25.019531 " fill-opacity="1" fill-rule="nonzero"/></g></g></g><g clip-path="url(#35c3edbf92)"><g clip-path="url(#9293f37d0c)"><g clip-path="url(#cd84e13395)"><path fill="#ffffff" d="M 178.234375 25.628906 C 178.234375 25.628906 178.230469 25.625 178.222656 25.625 L 178.214844 25.652344 C 178.226562 25.636719 178.230469 25.632812 178.234375 25.628906 Z M 178.234375 25.628906 " fill-opacity="1" fill-rule="nonzero"/></g></g></g><g clip-path="url(#1f0211cdd6)"><g clip-path="url(#45a7fd4e27)"><g clip-path="url(#7411b13367)"><path fill="#ffffff" d="M 175.875 26.675781 C 175.878906 26.675781 175.878906 26.683594 175.886719 26.679688 C 175.886719 26.675781 175.890625 26.671875 175.890625 26.667969 C 175.886719 26.664062 175.886719 26.664062 175.886719 26.660156 C 175.886719 26.660156 175.886719 26.644531 175.890625 26.636719 C 175.894531 26.597656 175.890625 26.558594 175.890625 26.507812 L 175.863281 26.5 C 175.863281 26.5 175.867188 26.550781 175.871094 26.601562 C 175.875 26.664062 175.875 26.675781 175.875 26.675781 Z M 175.875 26.675781 " fill-opacity="1" fill-rule="nonzero"/></g></g></g><g clip-path="url(#987234dc2e)"><g clip-path="url(#fcf3a82ca9)"><g clip-path="url(#2a1fdfd6c9)"><path fill="#ffffff" d="M 176.222656 27.777344 C 176.222656 27.777344 176.164062 27.824219 176.097656 27.875 C 176.042969 27.921875 175.984375 27.964844 175.984375 27.964844 C 176.074219 27.859375 176.160156 27.757812 176.238281 27.671875 C 176.320312 27.585938 176.394531 27.507812 176.46875 27.433594 C 176.507812 27.402344 176.539062 27.363281 176.574219 27.328125 C 176.597656 27.304688 176.625 27.28125 176.644531 27.257812 C 176.683594 27.222656 176.71875 27.195312 176.757812 27.160156 C 176.902344 27.03125 177.042969 26.910156 177.214844 26.746094 L 177.203125 26.769531 C 177.234375 26.75 177.234375 26.710938 177.320312 26.632812 C 177.363281 26.59375 177.421875 26.542969 177.519531 26.480469 C 177.613281 26.417969 177.746094 26.347656 177.921875 26.265625 L 177.925781 26.269531 C 177.945312 26.253906 177.941406 26.246094 177.992188 26.222656 C 177.992188 26.222656 177.960938 26.234375 177.929688 26.246094 C 177.898438 26.257812 177.867188 26.273438 177.867188 26.273438 C 177.921875 26.214844 177.96875 26.152344 178.050781 26.09375 C 178.070312 26.085938 178.085938 26.089844 178.089844 26.09375 C 178.089844 26.09375 178.140625 26.054688 178.195312 26.019531 C 178.246094 25.980469 178.300781 25.941406 178.300781 25.941406 L 178.386719 25.925781 C 178.441406 25.867188 178.375 25.824219 178.578125 25.742188 C 178.484375 25.742188 178.65625 25.660156 178.617188 25.65625 C 178.632812 25.652344 178.660156 25.652344 178.675781 25.644531 C 178.78125 25.574219 178.984375 25.441406 179.023438 25.390625 C 179.023438 25.390625 178.902344 25.429688 178.757812 25.46875 C 178.621094 25.507812 178.460938 25.558594 178.390625 25.570312 C 178.550781 25.488281 178.429688 25.542969 178.386719 25.542969 L 178.382812 25.5625 C 178.28125 25.609375 178.265625 25.585938 178.214844 25.601562 C 178.214844 25.605469 178.21875 25.605469 178.222656 25.605469 L 178.226562 25.597656 C 178.238281 25.601562 178.230469 25.605469 178.234375 25.609375 C 178.238281 25.613281 178.238281 25.625 178.210938 25.640625 L 178.214844 25.632812 C 178.183594 25.664062 178.113281 25.699219 178.082031 25.722656 L 178.066406 25.699219 C 178.046875 25.742188 177.921875 25.800781 177.792969 25.859375 C 177.660156 25.921875 177.523438 25.976562 177.480469 26.011719 C 177.367188 26.050781 177.285156 26.164062 177.167969 26.238281 C 176.992188 26.367188 177.058594 26.273438 176.957031 26.324219 C 176.839844 26.402344 176.996094 26.332031 176.953125 26.371094 C 176.953125 26.371094 176.914062 26.394531 176.878906 26.410156 C 176.839844 26.429688 176.804688 26.445312 176.804688 26.445312 C 176.878906 26.382812 176.824219 26.402344 176.808594 26.40625 C 176.75 26.449219 176.671875 26.5 176.609375 26.546875 C 176.542969 26.597656 176.492188 26.640625 176.496094 26.679688 C 176.328125 26.789062 176.320312 26.777344 176.253906 26.832031 C 176.28125 26.820312 176.328125 26.789062 176.339844 26.792969 C 176.265625 26.832031 176.3125 26.824219 176.34375 26.808594 C 176.335938 26.820312 176.320312 26.835938 176.300781 26.851562 C 176.292969 26.859375 176.28125 26.867188 176.273438 26.875 C 176.269531 26.882812 176.257812 26.886719 176.253906 26.890625 C 176.25 26.894531 176.25 26.894531 176.246094 26.894531 L 176.242188 26.902344 C 176.210938 26.917969 176.179688 26.9375 176.15625 26.949219 C 176.101562 26.976562 176.070312 26.980469 176.0625 27.03125 L 176.0625 27.015625 C 176.058594 27.050781 176.054688 27.085938 176.050781 27.121094 C 176.046875 27.152344 176.039062 27.179688 176.015625 27.222656 C 176.015625 27.222656 175.996094 27.214844 175.996094 27.214844 L 175.953125 27.289062 C 175.933594 27.292969 175.953125 27.253906 175.953125 27.246094 C 175.914062 27.304688 175.875 27.347656 175.839844 27.382812 C 175.820312 27.410156 175.835938 27.359375 175.832031 27.335938 C 175.835938 27.308594 175.839844 27.285156 175.835938 27.257812 C 175.835938 27.257812 175.804688 27.347656 175.777344 27.449219 C 175.75 27.550781 175.71875 27.664062 175.71875 27.664062 C 175.730469 27.574219 175.75 27.457031 175.765625 27.351562 C 175.777344 27.261719 175.78125 27.203125 175.761719 27.226562 C 175.761719 27.226562 175.773438 27.195312 175.777344 27.164062 C 175.789062 27.132812 175.796875 27.101562 175.796875 27.101562 C 175.816406 27.027344 175.820312 26.992188 175.824219 26.96875 C 175.824219 26.945312 175.816406 26.941406 175.8125 26.9375 C 175.800781 26.933594 175.777344 26.949219 175.789062 26.898438 C 175.789062 26.898438 175.796875 26.867188 175.808594 26.832031 C 175.820312 26.800781 175.832031 26.777344 175.832031 26.777344 L 175.835938 26.863281 C 175.84375 26.8125 175.855469 26.777344 175.863281 26.746094 C 175.875 26.71875 175.882812 26.691406 175.898438 26.664062 C 175.898438 26.667969 175.894531 26.667969 175.890625 26.671875 L 175.886719 26.664062 C 175.882812 26.664062 175.878906 26.660156 175.875 26.65625 C 175.875 26.652344 175.871094 26.652344 175.867188 26.644531 C 175.867188 26.644531 175.867188 26.640625 175.863281 26.640625 C 175.863281 26.636719 175.863281 26.632812 175.863281 26.628906 C 175.855469 26.597656 175.851562 26.554688 175.855469 26.507812 C 175.859375 26.371094 175.824219 26.261719 175.871094 26.039062 L 175.824219 25.984375 L 175.851562 25.820312 L 175.886719 25.816406 C 175.882812 25.976562 175.90625 26.28125 175.90625 26.488281 L 175.925781 26.492188 C 175.925781 26.367188 175.90625 26.230469 175.910156 26.148438 C 175.917969 26.105469 175.953125 26.007812 175.976562 26.078125 L 175.941406 26.003906 C 175.929688 25.59375 175.929688 25.589844 175.960938 25.164062 L 175.945312 25.203125 C 175.933594 25.117188 175.921875 25.03125 175.949219 25.011719 C 175.949219 24.757812 175.972656 24.488281 176.015625 24.320312 L 175.96875 24.28125 C 175.972656 24.226562 176.03125 24.144531 175.972656 24.117188 L 175.949219 24 C 175.953125 23.929688 175.925781 23.878906 175.949219 23.796875 C 175.949219 23.792969 175.953125 23.789062 175.953125 23.78125 C 175.953125 23.78125 175.949219 23.78125 175.949219 23.78125 C 175.960938 23.613281 175.910156 23.785156 175.929688 23.59375 C 175.957031 23.53125 175.875 23.523438 175.882812 23.433594 L 175.9375 23.335938 C 175.972656 23.167969 175.90625 23.140625 175.902344 22.894531 C 175.917969 22.773438 175.96875 22.714844 176.015625 22.796875 C 175.960938 22.691406 175.976562 22.75 175.949219 22.605469 C 175.96875 22.582031 175.976562 22.597656 175.996094 22.628906 C 176.019531 22.5 175.972656 22.554688 175.972656 22.457031 C 175.929688 22.429688 175.859375 22.402344 175.859375 22.371094 L 175.847656 22.40625 C 175.820312 22.308594 175.808594 22.195312 175.828125 22.078125 L 175.851562 22.078125 L 175.820312 21.972656 L 175.847656 21.964844 L 175.835938 21.789062 L 175.828125 21.8125 C 175.824219 21.773438 175.808594 21.632812 175.820312 21.554688 L 175.835938 21.558594 C 175.878906 21.335938 175.8125 21.152344 175.796875 20.890625 L 175.832031 20.925781 C 175.859375 20.835938 175.785156 20.902344 175.792969 20.796875 L 175.835938 20.789062 C 175.78125 20.695312 175.839844 20.667969 175.859375 20.605469 L 175.808594 20.636719 L 175.816406 20.515625 C 175.828125 20.382812 175.878906 20.433594 175.90625 20.449219 L 175.863281 20.363281 L 175.90625 20.339844 C 175.851562 20.277344 175.910156 20.277344 175.878906 20.160156 C 175.898438 20.152344 175.910156 20.183594 175.914062 20.140625 L 175.847656 19.949219 L 175.878906 20.066406 L 175.8125 20.050781 C 175.757812 19.933594 175.816406 19.890625 175.792969 19.804688 L 175.816406 19.859375 C 175.796875 19.722656 175.824219 19.714844 175.835938 19.632812 C 175.824219 19.65625 175.808594 19.695312 175.796875 19.640625 C 175.792969 19.597656 175.816406 19.617188 175.824219 19.578125 C 175.777344 19.574219 175.753906 19.46875 175.769531 19.378906 C 175.773438 19.378906 175.78125 19.382812 175.78125 19.386719 C 175.777344 19.363281 175.761719 19.351562 175.773438 19.308594 L 175.824219 19.332031 L 175.773438 19.257812 C 175.785156 19.207031 175.746094 19.132812 175.777344 19.136719 L 175.789062 19.167969 L 175.789062 18.777344 L 175.828125 18.769531 C 175.777344 18.730469 175.839844 18.554688 175.773438 18.566406 C 175.808594 18.492188 175.734375 18.28125 175.8125 18.320312 C 175.808594 18.058594 175.730469 17.925781 175.753906 17.609375 C 175.8125 17.496094 175.777344 17.1875 175.777344 16.988281 C 175.730469 16.597656 175.699219 16.34375 175.65625 15.941406 C 175.734375 15.695312 175.59375 15.339844 175.632812 15.078125 L 175.597656 15.007812 C 175.644531 14.832031 175.558594 14.574219 175.601562 14.324219 C 175.582031 14.269531 175.578125 14.238281 175.574219 14.222656 C 175.578125 14.230469 175.570312 14.25 175.546875 14.257812 C 175.558594 14.1875 175.53125 14.046875 175.578125 14.054688 L 175.582031 14.074219 C 175.628906 14.078125 175.550781 13.867188 175.585938 13.785156 L 175.539062 13.828125 L 175.539062 13.699219 L 175.550781 13.734375 C 175.410156 13.171875 175.546875 12.90625 175.417969 12.375 C 175.472656 12.441406 175.382812 12.269531 175.441406 12.257812 C 175.503906 12.117188 175.410156 12.011719 175.382812 11.898438 C 175.378906 11.898438 175.378906 11.898438 175.375 11.890625 L 175.371094 11.695312 C 175.449219 11.808594 175.300781 11.558594 175.367188 11.664062 C 175.390625 11.15625 175.292969 10.5 175.277344 9.917969 L 175.261719 9.945312 C 175.253906 9.796875 175.21875 9.617188 175.242188 9.5 C 175.265625 9.386719 175.179688 9.261719 175.171875 9.214844 C 175.128906 9.09375 175.183594 8.972656 175.183594 9.027344 C 175.164062 8.894531 175.089844 8.777344 175.09375 8.589844 C 175.117188 8.554688 175.089844 8.425781 175.054688 8.308594 C 175.019531 8.1875 174.984375 8.082031 175.019531 8.070312 L 175.015625 8.070312 C 175.015625 8.007812 175.007812 7.949219 174.988281 7.890625 C 174.980469 7.859375 174.96875 7.832031 174.964844 7.800781 C 174.953125 7.773438 174.941406 7.746094 174.929688 7.714844 C 174.890625 7.597656 174.835938 7.484375 174.808594 7.347656 C 174.808594 7.347656 174.8125 7.351562 174.820312 7.355469 C 174.820312 7.355469 174.796875 7.332031 174.757812 7.289062 C 174.71875 7.25 174.667969 7.199219 174.617188 7.148438 C 174.589844 7.125 174.5625 7.101562 174.539062 7.078125 C 174.511719 7.054688 174.488281 7.035156 174.464844 7.019531 C 174.414062 6.992188 174.382812 6.96875 174.382812 6.96875 C 174.382812 6.96875 174.351562 7.03125 174.320312 7.09375 C 174.289062 7.148438 174.25 7.207031 174.25 7.207031 C 174.25 7.207031 174.253906 7.214844 174.253906 7.226562 C 174.253906 7.238281 174.253906 7.257812 174.257812 7.273438 C 174.257812 7.316406 174.265625 7.375 174.257812 7.429688 C 174.257812 7.484375 174.257812 7.539062 174.25 7.582031 C 174.25 7.621094 174.246094 7.648438 174.246094 7.648438 C 174.246094 7.648438 174.253906 7.664062 174.265625 7.695312 C 174.273438 7.71875 174.292969 7.757812 174.308594 7.808594 C 174.34375 7.90625 174.382812 8.035156 174.417969 8.167969 C 174.433594 8.234375 174.449219 8.308594 174.464844 8.371094 C 174.476562 8.4375 174.492188 8.496094 174.5 8.550781 C 174.515625 8.65625 174.527344 8.730469 174.527344 8.730469 C 174.527344 8.730469 174.53125 8.789062 174.53125 8.875 C 174.535156 8.960938 174.535156 9.078125 174.53125 9.199219 C 174.53125 9.4375 174.53125 9.675781 174.53125 9.675781 C 174.53125 9.675781 174.578125 10.257812 174.625 10.84375 C 174.667969 11.425781 174.714844 12.011719 174.714844 12.011719 L 174.777344 12.175781 C 174.714844 12.636719 174.851562 13.21875 174.816406 13.71875 L 174.863281 13.722656 C 174.871094 13.863281 174.84375 13.859375 174.835938 13.890625 C 174.917969 15.183594 175.042969 16.519531 175.035156 17.6875 C 175.011719 17.804688 175.042969 18.144531 175.015625 18.230469 C 175.089844 18.609375 175.101562 19.007812 175.109375 19.390625 L 175.105469 19.375 L 175.121094 19.550781 C 175.117188 19.5625 175.113281 19.5625 175.109375 19.558594 C 175.15625 19.757812 175.128906 20.074219 175.117188 20.324219 L 175.113281 20.3125 C 175.152344 21.753906 175.273438 23.089844 175.238281 24.523438 C 175.207031 24.855469 175.21875 25.214844 175.230469 25.585938 C 175.242188 25.773438 175.246094 25.964844 175.25 26.148438 C 175.253906 26.246094 175.25 26.339844 175.25 26.4375 L 175.246094 26.578125 L 175.242188 26.652344 L 175.238281 26.78125 C 175.226562 26.863281 175.21875 27.171875 175.222656 27.582031 C 175.226562 27.984375 175.230469 28.488281 175.238281 28.933594 C 175.480469 28.648438 175.707031 28.382812 175.890625 28.171875 C 176.066406 27.96875 176.1875 27.824219 176.222656 27.777344 Z M 176.222656 27.777344 " fill-opacity="1" fill-rule="nonzero"/></g></g></g><g clip-path="url(#fc41158c19)"><g clip-path="url(#3064853b6c)"><g clip-path="url(#8d7a093400)"><path fill="#ffffff" d="M 178.09375 26.097656 L 178.089844 26.101562 C 178.101562 26.117188 178.105469 26.105469 178.09375 26.097656 Z M 178.09375 26.097656 " fill-opacity="1" fill-rule="nonzero"/></g></g></g><g clip-path="url(#d65b635221)"><g clip-path="url(#8374eed971)"><g clip-path="url(#34513f1680)"><path fill="#ffffff" d="M 175.828125 27.257812 C 175.828125 27.261719 175.828125 27.261719 175.828125 27.269531 L 175.855469 27.1875 Z M 175.828125 27.257812 " fill-opacity="1" fill-rule="nonzero"/></g></g></g><g clip-path="url(#0816f46a7b)"><g clip-path="url(#209909311e)"><g clip-path="url(#fd895fa702)"><path fill="#ffffff" d="M 176.863281 26.359375 C 176.785156 26.414062 176.785156 26.421875 176.804688 26.417969 C 176.828125 26.394531 176.851562 26.375 176.863281 26.359375 Z M 176.863281 26.359375 " fill-opacity="1" fill-rule="nonzero"/></g></g></g><g clip-path="url(#89acc62f78)"><g clip-path="url(#d3c0983d8b)"><g clip-path="url(#c1e93c1103)"><path fill="#ffffff" d="M 178.691406 25.671875 C 178.730469 25.652344 178.714844 25.648438 178.679688 25.648438 C 178.640625 25.675781 178.613281 25.695312 178.613281 25.695312 C 178.640625 25.691406 178.664062 25.683594 178.691406 25.671875 Z M 178.691406 25.671875 " fill-opacity="1" fill-rule="nonzero"/><path fill="#ffffff" d="M 178.390625 25.558594 L 178.394531 25.535156 C 178.375 25.554688 178.378906 25.558594 178.390625 25.558594 Z M 178.390625 25.558594 " fill-opacity="1" fill-rule="nonzero"/></g></g></g><g clip-path="url(#e2e15c4db7)"><g clip-path="url(#390efa5786)"><g clip-path="url(#8c75e44c28)"><path fill="#ffffff" d="M 174.90625 27.484375 C 174.90625 27.484375 174.910156 27.484375 174.90625 27.484375 C 174.914062 27.480469 174.917969 27.476562 174.929688 27.472656 Z M 174.90625 27.484375 " fill-opacity="1" fill-rule="nonzero"/></g></g></g><g clip-path="url(#4939057853)"><g clip-path="url(#a25554d0d5)"><g clip-path="url(#b44ee630ba)"><path fill="#ffffff" d="M 173.394531 26.285156 C 173.394531 26.285156 173.398438 26.285156 173.394531 26.285156 C 173.394531 26.285156 173.394531 26.28125 173.398438 26.28125 Z M 173.394531 26.285156 " fill-opacity="1" fill-rule="nonzero"/><path fill="#ffffff" d="M 173.40625 26.273438 C 173.410156 26.285156 173.398438 26.285156 173.394531 26.285156 C 173.390625 26.296875 173.394531 26.300781 173.40625 26.300781 C 173.414062 26.292969 173.402344 26.285156 173.40625 26.273438 Z M 173.40625 26.273438 " fill-opacity="1" fill-rule="nonzero"/></g></g></g><g clip-path="url(#765a2133e3)"><g clip-path="url(#49a6bed710)"><g clip-path="url(#1a6e79d4b9)"><path fill="#ffffff" d="M 172.730469 25.855469 L 172.734375 25.851562 C 172.734375 25.855469 172.730469 25.855469 172.730469 25.855469 Z M 172.730469 25.855469 " fill-opacity="1" fill-rule="nonzero"/><path fill="#ffffff" d="M 172.828125 25.9375 L 172.839844 25.921875 C 172.832031 25.925781 172.828125 25.933594 172.828125 25.9375 Z M 172.828125 25.9375 " fill-opacity="1" fill-rule="nonzero"/></g></g></g><g clip-path="url(#ea2ef83d68)"><g clip-path="url(#a2aa0575a4)"><g clip-path="url(#47c36a287f)"><path fill="#ffffff" d="M 174.929688 27.472656 L 174.9375 27.46875 C 174.933594 27.46875 174.933594 27.46875 174.929688 27.472656 Z M 174.929688 27.472656 " fill-opacity="1" fill-rule="nonzero"/></g></g></g><g clip-path="url(#c8a201ff36)"><g clip-path="url(#3989107af0)"><g clip-path="url(#4017b3e975)"><path fill="#ffffff" d="M 175.171875 27.871094 C 175.167969 27.875 175.164062 27.878906 175.15625 27.882812 Z M 175.171875 27.871094 " fill-opacity="1" fill-rule="nonzero"/></g></g></g><g clip-path="url(#f818f95385)"><g clip-path="url(#93a5496bb6)"><g clip-path="url(#32bee56084)"><path fill="#ffffff" d="M 175.589844 28.945312 C 175.589844 28.945312 175.59375 28.941406 175.597656 28.941406 L 175.585938 28.945312 C 175.585938 28.945312 175.585938 28.945312 175.589844 28.945312 Z M 175.589844 28.945312 " fill-opacity="1" fill-rule="nonzero"/><path fill="#ffffff" d="M 175.296875 28.160156 C 175.296875 28.160156 175.300781 28.160156 175.304688 28.15625 C 175.308594 28.148438 175.300781 28.132812 175.289062 28.125 L 175.269531 28.140625 Z M 175.296875 28.160156 " fill-opacity="1" fill-rule="nonzero"/></g></g></g><g clip-path="url(#358c9e8e0b)"><g clip-path="url(#866cdab164)"><g clip-path="url(#a69c0dd1fb)"><path fill="#ffffff" d="M 175.011719 28.816406 L 175.035156 28.757812 C 175.117188 28.820312 175.105469 28.890625 175.1875 28.929688 L 175.175781 28.933594 C 175.171875 28.953125 175.277344 28.882812 175.234375 29.082031 L 175.230469 29.085938 C 175.238281 29.089844 175.246094 29.082031 175.238281 29.097656 L 175.25 29.0625 C 175.265625 29.066406 175.292969 29.058594 175.308594 29.070312 C 175.304688 29.074219 175.296875 29.085938 175.292969 29.089844 L 175.324219 29.121094 L 175.304688 29.152344 C 175.328125 29.152344 175.382812 29.101562 175.375 29.15625 C 175.40625 29.113281 175.410156 29.15625 175.425781 29.136719 C 175.421875 29.140625 175.417969 29.148438 175.414062 29.160156 C 175.433594 29.171875 175.46875 29.199219 175.5 29.1875 C 175.5 29.1875 175.535156 29.054688 175.5625 29.003906 C 175.570312 29.039062 175.570312 29.007812 175.585938 28.992188 L 175.570312 28.996094 C 175.570312 28.976562 175.59375 28.953125 175.597656 28.941406 C 175.597656 28.941406 175.59375 28.945312 175.589844 28.945312 L 175.59375 28.945312 C 175.589844 28.949219 175.585938 28.949219 175.585938 28.949219 C 175.582031 28.957031 175.578125 28.957031 175.574219 28.953125 L 175.578125 28.953125 C 175.566406 28.949219 175.5625 28.933594 175.5625 28.925781 L 175.582031 28.910156 C 175.535156 28.933594 175.585938 28.785156 175.578125 28.769531 C 175.59375 28.730469 175.542969 28.742188 175.542969 28.714844 C 175.523438 28.679688 175.5625 28.675781 175.566406 28.644531 C 175.566406 28.609375 175.546875 28.667969 175.539062 28.660156 L 175.546875 28.613281 C 175.5625 28.625 175.570312 28.605469 175.574219 28.597656 C 175.5625 28.574219 175.578125 28.511719 175.527344 28.542969 C 175.53125 28.5 175.546875 28.484375 175.539062 28.472656 C 175.535156 28.480469 175.53125 28.496094 175.523438 28.5 C 175.535156 28.476562 175.511719 28.5 175.511719 28.507812 C 175.480469 28.503906 175.519531 28.359375 175.472656 28.394531 L 175.480469 28.390625 C 175.441406 28.414062 175.417969 28.449219 175.386719 28.453125 L 175.394531 28.433594 L 175.371094 28.433594 C 175.375 28.414062 175.386719 28.414062 175.390625 28.410156 C 175.359375 28.402344 175.355469 28.363281 175.347656 28.335938 L 175.269531 28.4375 C 175.277344 28.398438 175.296875 28.332031 175.261719 28.351562 L 175.28125 28.3125 C 175.308594 28.226562 175.234375 28.308594 175.238281 28.28125 L 175.257812 28.234375 L 175.269531 28.25 C 175.273438 28.21875 175.277344 28.199219 175.289062 28.167969 C 175.289062 28.167969 175.289062 28.171875 175.285156 28.171875 L 175.277344 28.171875 C 175.261719 28.183594 175.238281 28.183594 175.230469 28.171875 C 175.21875 28.148438 175.183594 28.15625 175.191406 28.097656 L 175.152344 28.117188 L 175.152344 28.078125 L 175.179688 28.050781 C 175.195312 28.074219 175.242188 28.105469 175.265625 28.136719 L 175.28125 28.125 C 175.265625 28.109375 175.238281 28.101562 175.230469 28.089844 C 175.230469 28.082031 175.25 28.042969 175.277344 28.035156 L 175.242188 28.046875 C 175.191406 27.992188 175.1875 27.996094 175.167969 27.910156 L 175.160156 27.929688 C 175.144531 27.925781 175.125 27.917969 175.144531 27.898438 C 175.121094 27.859375 175.101562 27.8125 175.117188 27.757812 L 175.082031 27.78125 C 175.078125 27.773438 175.113281 27.71875 175.066406 27.753906 L 175.039062 27.753906 C 175.035156 27.738281 175.007812 27.75 175.015625 27.722656 C 175.015625 27.722656 175.015625 27.71875 175.015625 27.71875 C 175.015625 27.71875 175.015625 27.71875 175.011719 27.722656 C 175.003906 27.6875 174.980469 27.75 174.976562 27.707031 C 174.992188 27.679688 174.929688 27.734375 174.921875 27.714844 L 174.957031 27.664062 C 174.960938 27.617188 174.914062 27.652344 174.878906 27.625 C 174.882812 27.589844 174.910156 27.546875 174.953125 27.527344 C 174.902344 27.550781 174.925781 27.546875 174.882812 27.546875 C 174.894531 27.527344 174.90625 27.527344 174.921875 27.515625 C 174.925781 27.480469 174.894531 27.519531 174.886719 27.503906 C 174.851562 27.53125 174.792969 27.574219 174.789062 27.570312 L 174.785156 27.585938 C 174.753906 27.585938 174.734375 27.578125 174.738281 27.550781 L 174.753906 27.539062 L 174.730469 27.53125 L 174.75 27.511719 L 174.71875 27.496094 L 174.714844 27.503906 C 174.707031 27.5 174.683594 27.488281 174.6875 27.46875 L 174.699219 27.460938 C 174.703125 27.394531 174.636719 27.417969 174.601562 27.390625 L 174.628906 27.367188 C 174.640625 27.335938 174.589844 27.398438 174.589844 27.375 L 174.613281 27.347656 C 174.566406 27.375 174.609375 27.324219 174.609375 27.300781 L 174.578125 27.339844 L 174.570312 27.320312 C 174.566406 27.292969 174.601562 27.261719 174.625 27.246094 L 174.585938 27.261719 L 174.613281 27.230469 C 174.570312 27.257812 174.613281 27.214844 174.578125 27.21875 C 174.589844 27.203125 174.597656 27.203125 174.597656 27.1875 L 174.53125 27.210938 L 174.566406 27.203125 L 174.519531 27.25 C 174.472656 27.269531 174.503906 27.222656 174.480469 27.226562 L 174.503906 27.21875 C 174.476562 27.210938 174.492188 27.191406 174.492188 27.167969 C 174.488281 27.183594 174.480469 27.199219 174.464844 27.199219 C 174.457031 27.195312 174.480469 27.179688 174.476562 27.171875 C 174.449219 27.199219 174.417969 27.207031 174.417969 27.179688 C 174.425781 27.175781 174.429688 27.167969 174.433594 27.167969 C 174.421875 27.167969 174.414062 27.179688 174.417969 27.164062 L 174.457031 27.136719 L 174.414062 27.160156 C 174.417969 27.148438 174.382812 27.164062 174.40625 27.140625 L 174.417969 27.132812 L 174.371094 27.078125 L 174.398438 27.050781 C 174.355469 27.085938 174.378906 27.007812 174.339844 27.058594 C 174.355469 27.019531 174.28125 27.039062 174.335938 26.988281 C 174.308594 26.957031 174.242188 26.988281 174.222656 26.925781 C 174.25 26.863281 174.195312 26.839844 174.175781 26.816406 C 174.105469 26.789062 174.054688 26.773438 173.984375 26.742188 C 174.007812 26.644531 173.878906 26.695312 173.878906 26.628906 L 173.847656 26.648438 C 173.863281 26.582031 173.78125 26.605469 173.78125 26.539062 C 173.765625 26.542969 173.753906 26.546875 173.753906 26.546875 C 173.753906 26.550781 173.753906 26.554688 173.738281 26.574219 C 173.738281 26.554688 173.707031 26.554688 173.734375 26.519531 L 173.738281 26.519531 C 173.769531 26.484375 173.699219 26.511719 173.707031 26.472656 L 173.683594 26.515625 L 173.667969 26.492188 L 173.679688 26.488281 C 173.535156 26.507812 173.589844 26.355469 173.453125 26.375 C 173.496094 26.339844 173.421875 26.386719 173.453125 26.339844 C 173.480469 26.269531 173.40625 26.324219 173.378906 26.328125 C 173.378906 26.328125 173.375 26.332031 173.371094 26.335938 L 173.347656 26.3125 C 173.40625 26.265625 173.289062 26.34375 173.339844 26.308594 C 173.304688 26.210938 173.171875 26.183594 173.105469 26.101562 L 173.097656 26.121094 C 173.078125 26.101562 173.035156 26.101562 173.039062 26.066406 C 173.039062 26.027344 172.976562 26.078125 172.964844 26.074219 C 172.929688 26.085938 172.949219 26.027344 172.953125 26.035156 C 172.929688 26.027344 172.875 26.066406 172.863281 26.027344 C 172.890625 25.972656 172.753906 26.027344 172.792969 25.96875 L 172.789062 25.972656 C 172.78125 25.910156 172.703125 25.957031 172.6875 25.894531 C 172.6875 25.894531 172.691406 25.890625 172.695312 25.890625 L 172.507812 26.011719 L 172.398438 26.21875 L 172.359375 26.417969 C 172.359375 26.417969 172.40625 26.4375 172.457031 26.457031 C 172.503906 26.476562 172.554688 26.5 172.554688 26.5 L 172.648438 26.652344 C 172.648438 26.652344 172.667969 26.664062 172.699219 26.683594 C 172.734375 26.707031 172.773438 26.734375 172.816406 26.757812 C 172.859375 26.789062 172.894531 26.8125 172.929688 26.832031 C 172.957031 26.851562 172.980469 26.871094 172.980469 26.871094 L 173.035156 26.847656 C 173.039062 26.96875 173.1875 26.945312 173.210938 27.054688 L 173.238281 27.019531 C 173.257812 27.03125 173.242188 27.050781 173.242188 27.066406 C 173.421875 27.199219 173.632812 27.300781 173.742188 27.480469 C 173.734375 27.511719 173.789062 27.539062 173.78125 27.570312 C 173.863281 27.574219 173.914062 27.621094 173.960938 27.671875 L 173.957031 27.671875 L 173.984375 27.6875 C 173.984375 27.691406 173.980469 27.699219 173.976562 27.699219 C 174.03125 27.695312 174.039062 27.761719 174.054688 27.800781 L 174.050781 27.800781 C 174.21875 27.980469 174.441406 28.085938 174.558594 28.3125 C 174.566406 28.378906 174.613281 28.421875 174.664062 28.457031 C 174.710938 28.5 174.761719 28.542969 174.777344 28.613281 C 174.789062 28.625 174.980469 28.808594 175.011719 28.816406 Z M 175.011719 28.816406 " fill-opacity="1" fill-rule="nonzero"/></g></g></g><g clip-path="url(#20038eae13)"><g clip-path="url(#e70ec88869)"><g clip-path="url(#66ebb90d58)"><path fill="#ffffff" d="M 175.296875 29.082031 C 175.28125 29.089844 175.285156 29.089844 175.296875 29.082031 Z M 175.296875 29.082031 " fill-opacity="1" fill-rule="nonzero"/></g></g></g><g clip-path="url(#372e0459fc)"><g clip-path="url(#5efba6dd18)"><g clip-path="url(#510cb47295)"><path fill="#ffffff" d="M 175.359375 28.324219 L 175.375 28.304688 Z M 175.359375 28.324219 " fill-opacity="1" fill-rule="nonzero"/><path fill="#ffffff" d="M 175.597656 28.601562 C 175.589844 28.582031 175.585938 28.585938 175.582031 28.589844 C 175.585938 28.597656 175.59375 28.601562 175.597656 28.601562 Z M 175.597656 28.601562 " fill-opacity="1" fill-rule="nonzero"/></g></g></g><g clip-path="url(#fa4f880727)"><g clip-path="url(#0409bab402)"><g clip-path="url(#e829fc8681)"><path fill="#ffffff" d="M 175.402344 29.164062 C 175.40625 29.171875 175.410156 29.164062 175.417969 29.148438 C 175.414062 29.144531 175.410156 29.140625 175.410156 29.140625 C 175.410156 29.144531 175.40625 29.160156 175.402344 29.164062 Z M 175.402344 29.164062 " fill-opacity="1" fill-rule="nonzero"/></g></g></g><g clip-path="url(#c854acaa0f)"><g clip-path="url(#5e4e0ee8f9)"><g clip-path="url(#b4c5e53925)"><path fill="#ffffff" d="M 175.589844 28.984375 L 175.601562 28.976562 C 175.597656 28.976562 175.59375 28.976562 175.589844 28.984375 Z M 175.589844 28.984375 " fill-opacity="1" fill-rule="nonzero"/></g></g></g><g fill="#ffffff" fill-opacity="1"><g transform="translate(120.508018, 5.346384)"><g><path d="M 1.53125 0.0625 C 1.257812 0.0625 1.019531 0.0234375 0.8125 -0.046875 C 0.601562 -0.128906 0.429688 -0.234375 0.296875 -0.359375 C 0.160156 -0.484375 0.0625 -0.617188 0 -0.765625 L 0.5625 -1.28125 L 0.640625 -1.28125 C 0.722656 -1.09375 0.847656 -0.941406 1.015625 -0.828125 C 1.191406 -0.710938 1.410156 -0.65625 1.671875 -0.65625 C 1.898438 -0.65625 2.082031 -0.703125 2.21875 -0.796875 C 2.351562 -0.890625 2.4375 -1.015625 2.46875 -1.171875 C 2.476562 -1.222656 2.484375 -1.269531 2.484375 -1.3125 C 2.484375 -1.425781 2.445312 -1.515625 2.375 -1.578125 C 2.300781 -1.648438 2.175781 -1.710938 2 -1.765625 L 1.59375 -1.875 C 1.28125 -1.96875 1.035156 -2.101562 0.859375 -2.28125 C 0.691406 -2.46875 0.609375 -2.691406 0.609375 -2.953125 C 0.609375 -3.035156 0.617188 -3.128906 0.640625 -3.234375 C 0.710938 -3.554688 0.882812 -3.8125 1.15625 -4 C 1.425781 -4.195312 1.820312 -4.296875 2.34375 -4.296875 C 2.664062 -4.296875 2.941406 -4.25 3.171875 -4.15625 C 3.398438 -4.0625 3.582031 -3.921875 3.71875 -3.734375 L 3.1875 -3.203125 L 3.109375 -3.203125 C 3.015625 -3.328125 2.894531 -3.421875 2.75 -3.484375 C 2.613281 -3.546875 2.445312 -3.578125 2.25 -3.578125 C 2.019531 -3.578125 1.835938 -3.539062 1.703125 -3.46875 C 1.566406 -3.394531 1.484375 -3.296875 1.453125 -3.171875 C 1.441406 -3.117188 1.4375 -3.078125 1.4375 -3.046875 C 1.4375 -2.941406 1.472656 -2.851562 1.546875 -2.78125 C 1.628906 -2.71875 1.75 -2.664062 1.90625 -2.625 L 2.359375 -2.5 C 2.679688 -2.40625 2.925781 -2.273438 3.09375 -2.109375 C 3.257812 -1.941406 3.34375 -1.722656 3.34375 -1.453125 C 3.34375 -1.347656 3.332031 -1.242188 3.3125 -1.140625 C 3.144531 -0.335938 2.550781 0.0625 1.53125 0.0625 Z M 1.53125 0.0625 "/></g></g><g transform="translate(124.151169, 5.346384)"><g><path d="M 3.25 -2.234375 C 3.175781 -1.878906 2.984375 -1.625 2.671875 -1.46875 C 2.359375 -1.3125 1.976562 -1.234375 1.53125 -1.234375 C 1.363281 -1.234375 1.210938 -1.238281 1.078125 -1.25 C 1.085938 -1.039062 1.144531 -0.882812 1.25 -0.78125 C 1.351562 -0.675781 1.5 -0.625 1.6875 -0.625 C 1.863281 -0.625 2.007812 -0.65625 2.125 -0.71875 C 2.238281 -0.789062 2.34375 -0.898438 2.4375 -1.046875 L 2.5 -1.046875 L 3.015625 -0.6875 C 2.921875 -0.53125 2.8125 -0.394531 2.6875 -0.28125 C 2.5625 -0.175781 2.40625 -0.09375 2.21875 -0.03125 C 2.039062 0.03125 1.816406 0.0625 1.546875 0.0625 C 1.296875 0.0625 1.070312 0.0078125 0.875 -0.09375 C 0.6875 -0.195312 0.535156 -0.347656 0.421875 -0.546875 C 0.316406 -0.753906 0.265625 -0.992188 0.265625 -1.265625 C 0.265625 -1.429688 0.285156 -1.601562 0.328125 -1.78125 C 0.390625 -2.082031 0.507812 -2.34375 0.6875 -2.5625 C 0.863281 -2.789062 1.078125 -2.960938 1.328125 -3.078125 C 1.578125 -3.203125 1.847656 -3.265625 2.140625 -3.265625 C 2.378906 -3.265625 2.582031 -3.222656 2.75 -3.140625 C 2.925781 -3.066406 3.054688 -2.96875 3.140625 -2.84375 C 3.222656 -2.71875 3.265625 -2.578125 3.265625 -2.421875 C 3.265625 -2.347656 3.257812 -2.285156 3.25 -2.234375 Z M 2.0625 -2.640625 C 1.9375 -2.640625 1.8125 -2.609375 1.6875 -2.546875 C 1.570312 -2.492188 1.46875 -2.410156 1.375 -2.296875 C 1.28125 -2.179688 1.207031 -2.039062 1.15625 -1.875 C 1.3125 -1.863281 1.453125 -1.859375 1.578125 -1.859375 C 1.847656 -1.859375 2.0625 -1.890625 2.21875 -1.953125 C 2.375 -2.023438 2.46875 -2.144531 2.5 -2.3125 C 2.5 -2.332031 2.5 -2.347656 2.5 -2.359375 C 2.5 -2.441406 2.457031 -2.507812 2.375 -2.5625 C 2.300781 -2.613281 2.195312 -2.640625 2.0625 -2.640625 Z M 2.0625 -2.640625 "/></g></g><g transform="translate(127.628986, 5.346384)"><g><path d="M 1.59375 -2.5625 L 1.28125 -1.109375 C 1.269531 -1.046875 1.265625 -0.992188 1.265625 -0.953125 C 1.265625 -0.847656 1.289062 -0.769531 1.34375 -0.71875 C 1.394531 -0.664062 1.472656 -0.640625 1.578125 -0.640625 C 1.640625 -0.640625 1.703125 -0.648438 1.765625 -0.671875 C 1.828125 -0.691406 1.890625 -0.722656 1.953125 -0.765625 L 2.015625 -0.765625 L 2.125 -0.171875 C 2.019531 -0.0976562 1.910156 -0.0390625 1.796875 0 C 1.679688 0.0390625 1.53125 0.0625 1.34375 0.0625 C 1.164062 0.0625 1.007812 0.03125 0.875 -0.03125 C 0.738281 -0.09375 0.632812 -0.1875 0.5625 -0.3125 C 0.488281 -0.445312 0.453125 -0.601562 0.453125 -0.78125 C 0.453125 -0.894531 0.460938 -1.007812 0.484375 -1.125 L 0.78125 -2.5625 L 0.296875 -2.5625 L 0.4375 -3.203125 L 0.921875 -3.203125 L 1.0625 -3.828125 L 1.890625 -3.953125 L 1.734375 -3.203125 L 2.640625 -3.203125 L 2.5 -2.5625 Z M 1.59375 -2.5625 "/></g></g><g transform="translate(130.114798, 5.346384)"><g/></g><g transform="translate(131.515787, 5.346384)"><g><path d="M 1.59375 -2.5625 L 1.28125 -1.109375 C 1.269531 -1.046875 1.265625 -0.992188 1.265625 -0.953125 C 1.265625 -0.847656 1.289062 -0.769531 1.34375 -0.71875 C 1.394531 -0.664062 1.472656 -0.640625 1.578125 -0.640625 C 1.640625 -0.640625 1.703125 -0.648438 1.765625 -0.671875 C 1.828125 -0.691406 1.890625 -0.722656 1.953125 -0.765625 L 2.015625 -0.765625 L 2.125 -0.171875 C 2.019531 -0.0976562 1.910156 -0.0390625 1.796875 0 C 1.679688 0.0390625 1.53125 0.0625 1.34375 0.0625 C 1.164062 0.0625 1.007812 0.03125 0.875 -0.03125 C 0.738281 -0.09375 0.632812 -0.1875 0.5625 -0.3125 C 0.488281 -0.445312 0.453125 -0.601562 0.453125 -0.78125 C 0.453125 -0.894531 0.460938 -1.007812 0.484375 -1.125 L 0.78125 -2.5625 L 0.296875 -2.5625 L 0.4375 -3.203125 L 0.921875 -3.203125 L 1.0625 -3.828125 L 1.890625 -3.953125 L 1.734375 -3.203125 L 2.640625 -3.203125 L 2.5 -2.5625 Z M 1.59375 -2.5625 "/></g></g><g transform="translate(134.001599, 5.346384)"><g><path d="M 0.125 0 L 1.078125 -4.484375 L 1.875 -4.484375 L 1.515625 -2.78125 L 1.578125 -2.765625 C 1.828125 -3.097656 2.164062 -3.265625 2.59375 -3.265625 C 2.875 -3.265625 3.085938 -3.179688 3.234375 -3.015625 C 3.390625 -2.859375 3.46875 -2.644531 3.46875 -2.375 C 3.46875 -2.257812 3.453125 -2.132812 3.421875 -2 L 3 0 L 2.1875 0 L 2.609375 -1.953125 C 2.617188 -2.035156 2.625 -2.101562 2.625 -2.15625 C 2.625 -2.289062 2.582031 -2.394531 2.5 -2.46875 C 2.425781 -2.539062 2.316406 -2.578125 2.171875 -2.578125 C 1.953125 -2.578125 1.765625 -2.503906 1.609375 -2.359375 C 1.453125 -2.210938 1.34375 -1.976562 1.28125 -1.65625 L 0.921875 0 Z M 0.125 0 "/></g></g><g transform="translate(137.752072, 5.346384)"><g><path d="M 3.25 -2.234375 C 3.175781 -1.878906 2.984375 -1.625 2.671875 -1.46875 C 2.359375 -1.3125 1.976562 -1.234375 1.53125 -1.234375 C 1.363281 -1.234375 1.210938 -1.238281 1.078125 -1.25 C 1.085938 -1.039062 1.144531 -0.882812 1.25 -0.78125 C 1.351562 -0.675781 1.5 -0.625 1.6875 -0.625 C 1.863281 -0.625 2.007812 -0.65625 2.125 -0.71875 C 2.238281 -0.789062 2.34375 -0.898438 2.4375 -1.046875 L 2.5 -1.046875 L 3.015625 -0.6875 C 2.921875 -0.53125 2.8125 -0.394531 2.6875 -0.28125 C 2.5625 -0.175781 2.40625 -0.09375 2.21875 -0.03125 C 2.039062 0.03125 1.816406 0.0625 1.546875 0.0625 C 1.296875 0.0625 1.070312 0.0078125 0.875 -0.09375 C 0.6875 -0.195312 0.535156 -0.347656 0.421875 -0.546875 C 0.316406 -0.753906 0.265625 -0.992188 0.265625 -1.265625 C 0.265625 -1.429688 0.285156 -1.601562 0.328125 -1.78125 C 0.390625 -2.082031 0.507812 -2.34375 0.6875 -2.5625 C 0.863281 -2.789062 1.078125 -2.960938 1.328125 -3.078125 C 1.578125 -3.203125 1.847656 -3.265625 2.140625 -3.265625 C 2.378906 -3.265625 2.582031 -3.222656 2.75 -3.140625 C 2.925781 -3.066406 3.054688 -2.96875 3.140625 -2.84375 C 3.222656 -2.71875 3.265625 -2.578125 3.265625 -2.421875 C 3.265625 -2.347656 3.257812 -2.285156 3.25 -2.234375 Z M 2.0625 -2.640625 C 1.9375 -2.640625 1.8125 -2.609375 1.6875 -2.546875 C 1.570312 -2.492188 1.46875 -2.410156 1.375 -2.296875 C 1.28125 -2.179688 1.207031 -2.039062 1.15625 -1.875 C 1.3125 -1.863281 1.453125 -1.859375 1.578125 -1.859375 C 1.847656 -1.859375 2.0625 -1.890625 2.21875 -1.953125 C 2.375 -2.023438 2.46875 -2.144531 2.5 -2.3125 C 2.5 -2.332031 2.5 -2.347656 2.5 -2.359375 C 2.5 -2.441406 2.457031 -2.507812 2.375 -2.5625 C 2.300781 -2.613281 2.195312 -2.640625 2.0625 -2.640625 Z M 2.0625 -2.640625 "/></g></g><g transform="translate(141.229889, 5.346384)"><g/></g><g transform="translate(142.630878, 5.346384)"><g><path d="M -0.15625 1.296875 L 0.796875 -3.203125 L 1.609375 -3.203125 L 1.515625 -2.8125 L 1.578125 -2.796875 C 1.703125 -2.953125 1.84375 -3.066406 2 -3.140625 C 2.164062 -3.222656 2.351562 -3.265625 2.5625 -3.265625 C 2.769531 -3.265625 2.953125 -3.21875 3.109375 -3.125 C 3.265625 -3.03125 3.382812 -2.894531 3.46875 -2.71875 C 3.550781 -2.539062 3.59375 -2.320312 3.59375 -2.0625 C 3.59375 -1.863281 3.566406 -1.660156 3.515625 -1.453125 C 3.410156 -0.960938 3.21875 -0.585938 2.9375 -0.328125 C 2.65625 -0.0664062 2.296875 0.0625 1.859375 0.0625 C 1.671875 0.0625 1.507812 0.0234375 1.375 -0.046875 C 1.238281 -0.117188 1.132812 -0.21875 1.0625 -0.34375 L 1 -0.34375 L 0.65625 1.296875 Z M 1.796875 -0.625 C 2.265625 -0.625 2.566406 -0.921875 2.703125 -1.515625 C 2.734375 -1.671875 2.75 -1.804688 2.75 -1.921875 C 2.75 -2.140625 2.695312 -2.300781 2.59375 -2.40625 C 2.5 -2.519531 2.359375 -2.578125 2.171875 -2.578125 C 1.953125 -2.578125 1.757812 -2.5 1.59375 -2.34375 C 1.4375 -2.1875 1.328125 -1.96875 1.265625 -1.6875 C 1.234375 -1.539062 1.21875 -1.410156 1.21875 -1.296875 C 1.21875 -1.066406 1.269531 -0.894531 1.375 -0.78125 C 1.488281 -0.675781 1.628906 -0.625 1.796875 -0.625 Z M 1.796875 -0.625 "/></g></g><g transform="translate(146.462567, 5.346384)"><g><path d="M 0.125 0 L 0.796875 -3.203125 L 1.578125 -3.203125 L 1.484375 -2.71875 L 1.53125 -2.703125 C 1.644531 -2.890625 1.769531 -3.023438 1.90625 -3.109375 C 2.050781 -3.191406 2.21875 -3.234375 2.40625 -3.234375 C 2.5 -3.234375 2.578125 -3.222656 2.640625 -3.203125 C 2.710938 -3.191406 2.765625 -3.171875 2.796875 -3.140625 L 2.546875 -2.4375 L 2.484375 -2.421875 C 2.378906 -2.460938 2.265625 -2.484375 2.140625 -2.484375 C 1.679688 -2.484375 1.378906 -2.15625 1.234375 -1.5 L 0.921875 0 Z M 0.125 0 "/></g></g><g transform="translate(148.971585, 5.346384)"><g><path d="M 1.390625 -3.578125 C 1.242188 -3.578125 1.125 -3.617188 1.03125 -3.703125 C 0.9375 -3.796875 0.890625 -3.910156 0.890625 -4.046875 C 0.890625 -4.191406 0.9375 -4.304688 1.03125 -4.390625 C 1.125 -4.472656 1.242188 -4.515625 1.390625 -4.515625 C 1.484375 -4.515625 1.566406 -4.492188 1.640625 -4.453125 C 1.710938 -4.421875 1.769531 -4.367188 1.8125 -4.296875 C 1.851562 -4.222656 1.875 -4.140625 1.875 -4.046875 C 1.875 -3.960938 1.851562 -3.882812 1.8125 -3.8125 C 1.769531 -3.738281 1.710938 -3.679688 1.640625 -3.640625 C 1.566406 -3.597656 1.484375 -3.578125 1.390625 -3.578125 Z M 0.125 0 L 0.796875 -3.203125 L 1.609375 -3.203125 L 0.921875 0 Z M 0.125 0 "/></g></g><g transform="translate(150.69454, 5.346384)"><g><path d="M 1.59375 0.0625 C 1.320312 0.0625 1.082031 0.015625 0.875 -0.078125 C 0.675781 -0.179688 0.519531 -0.328125 0.40625 -0.515625 C 0.300781 -0.710938 0.25 -0.945312 0.25 -1.21875 C 0.25 -1.375 0.269531 -1.539062 0.3125 -1.71875 C 0.382812 -2.03125 0.5 -2.300781 0.65625 -2.53125 C 0.820312 -2.769531 1.023438 -2.953125 1.265625 -3.078125 C 1.515625 -3.203125 1.800781 -3.265625 2.125 -3.265625 C 2.394531 -3.265625 2.628906 -3.210938 2.828125 -3.109375 C 3.035156 -3.003906 3.191406 -2.851562 3.296875 -2.65625 C 3.410156 -2.46875 3.46875 -2.238281 3.46875 -1.96875 C 3.46875 -1.820312 3.445312 -1.660156 3.40625 -1.484375 C 3.34375 -1.160156 3.226562 -0.882812 3.0625 -0.65625 C 2.894531 -0.425781 2.6875 -0.25 2.4375 -0.125 C 2.1875 0 1.90625 0.0625 1.59375 0.0625 Z M 1.671875 -0.625 C 1.898438 -0.625 2.09375 -0.703125 2.25 -0.859375 C 2.414062 -1.023438 2.535156 -1.269531 2.609375 -1.59375 C 2.628906 -1.726562 2.640625 -1.847656 2.640625 -1.953125 C 2.640625 -2.160156 2.585938 -2.316406 2.484375 -2.421875 C 2.378906 -2.523438 2.234375 -2.578125 2.046875 -2.578125 C 1.816406 -2.578125 1.617188 -2.492188 1.453125 -2.328125 C 1.296875 -2.171875 1.179688 -1.925781 1.109375 -1.59375 C 1.078125 -1.457031 1.0625 -1.335938 1.0625 -1.234375 C 1.0625 -1.023438 1.113281 -0.867188 1.21875 -0.765625 C 1.332031 -0.671875 1.484375 -0.625 1.671875 -0.625 Z M 1.671875 -0.625 "/></g></g><g transform="translate(154.413106, 5.346384)"><g><path d="M 0.125 0 L 0.796875 -3.203125 L 1.578125 -3.203125 L 1.484375 -2.71875 L 1.53125 -2.703125 C 1.644531 -2.890625 1.769531 -3.023438 1.90625 -3.109375 C 2.050781 -3.191406 2.21875 -3.234375 2.40625 -3.234375 C 2.5 -3.234375 2.578125 -3.222656 2.640625 -3.203125 C 2.710938 -3.191406 2.765625 -3.171875 2.796875 -3.140625 L 2.546875 -2.4375 L 2.484375 -2.421875 C 2.378906 -2.460938 2.265625 -2.484375 2.140625 -2.484375 C 1.679688 -2.484375 1.378906 -2.15625 1.234375 -1.5 L 0.921875 0 Z M 0.125 0 "/></g></g><g transform="translate(156.922123, 5.346384)"><g><path d="M 1.390625 -3.578125 C 1.242188 -3.578125 1.125 -3.617188 1.03125 -3.703125 C 0.9375 -3.796875 0.890625 -3.910156 0.890625 -4.046875 C 0.890625 -4.191406 0.9375 -4.304688 1.03125 -4.390625 C 1.125 -4.472656 1.242188 -4.515625 1.390625 -4.515625 C 1.484375 -4.515625 1.566406 -4.492188 1.640625 -4.453125 C 1.710938 -4.421875 1.769531 -4.367188 1.8125 -4.296875 C 1.851562 -4.222656 1.875 -4.140625 1.875 -4.046875 C 1.875 -3.960938 1.851562 -3.882812 1.8125 -3.8125 C 1.769531 -3.738281 1.710938 -3.679688 1.640625 -3.640625 C 1.566406 -3.597656 1.484375 -3.578125 1.390625 -3.578125 Z M 0.125 0 L 0.796875 -3.203125 L 1.609375 -3.203125 L 0.921875 0 Z M 0.125 0 "/></g></g><g transform="translate(158.645078, 5.346384)"><g><path d="M 1.59375 -2.5625 L 1.28125 -1.109375 C 1.269531 -1.046875 1.265625 -0.992188 1.265625 -0.953125 C 1.265625 -0.847656 1.289062 -0.769531 1.34375 -0.71875 C 1.394531 -0.664062 1.472656 -0.640625 1.578125 -0.640625 C 1.640625 -0.640625 1.703125 -0.648438 1.765625 -0.671875 C 1.828125 -0.691406 1.890625 -0.722656 1.953125 -0.765625 L 2.015625 -0.765625 L 2.125 -0.171875 C 2.019531 -0.0976562 1.910156 -0.0390625 1.796875 0 C 1.679688 0.0390625 1.53125 0.0625 1.34375 0.0625 C 1.164062 0.0625 1.007812 0.03125 0.875 -0.03125 C 0.738281 -0.09375 0.632812 -0.1875 0.5625 -0.3125 C 0.488281 -0.445312 0.453125 -0.601562 0.453125 -0.78125 C 0.453125 -0.894531 0.460938 -1.007812 0.484375 -1.125 L 0.78125 -2.5625 L 0.296875 -2.5625 L 0.4375 -3.203125 L 0.921875 -3.203125 L 1.0625 -3.828125 L 1.890625 -3.953125 L 1.734375 -3.203125 L 2.640625 -3.203125 L 2.5 -2.5625 Z M 1.59375 -2.5625 "/></g></g><g transform="translate(161.130891, 5.346384)"><g><path d="M 0.09375 1.359375 C -0.0390625 1.359375 -0.164062 1.347656 -0.28125 1.328125 C -0.394531 1.304688 -0.484375 1.273438 -0.546875 1.234375 L -0.28125 0.59375 L -0.21875 0.578125 C -0.175781 0.597656 -0.117188 0.613281 -0.046875 0.625 C 0.015625 0.644531 0.0820312 0.65625 0.15625 0.65625 C 0.289062 0.65625 0.40625 0.640625 0.5 0.609375 C 0.59375 0.578125 0.675781 0.519531 0.75 0.4375 C 0.820312 0.363281 0.898438 0.253906 0.984375 0.109375 L 0.40625 -3.203125 L 1.203125 -3.203125 L 1.546875 -0.96875 L 1.609375 -0.96875 L 2.84375 -3.203125 L 3.703125 -3.203125 L 1.703125 0.265625 C 1.546875 0.523438 1.390625 0.734375 1.234375 0.890625 C 1.078125 1.054688 0.90625 1.175781 0.71875 1.25 C 0.539062 1.320312 0.332031 1.359375 0.09375 1.359375 Z M 0.09375 1.359375 "/></g></g><g transform="translate(164.565199, 5.346384)"><g/></g><g transform="translate(165.966187, 5.346384)"><g><path d="M 0.125 0 L 1.078125 -4.484375 L 1.875 -4.484375 L 1.515625 -2.78125 L 1.578125 -2.765625 C 1.828125 -3.097656 2.164062 -3.265625 2.59375 -3.265625 C 2.875 -3.265625 3.085938 -3.179688 3.234375 -3.015625 C 3.390625 -2.859375 3.46875 -2.644531 3.46875 -2.375 C 3.46875 -2.257812 3.453125 -2.132812 3.421875 -2 L 3 0 L 2.1875 0 L 2.609375 -1.953125 C 2.617188 -2.035156 2.625 -2.101562 2.625 -2.15625 C 2.625 -2.289062 2.582031 -2.394531 2.5 -2.46875 C 2.425781 -2.539062 2.316406 -2.578125 2.171875 -2.578125 C 1.953125 -2.578125 1.765625 -2.503906 1.609375 -2.359375 C 1.453125 -2.210938 1.34375 -1.976562 1.28125 -1.65625 L 0.921875 0 Z M 0.125 0 "/></g></g><g transform="translate(169.71666, 5.346384)"><g><path d="M 3.25 -2.234375 C 3.175781 -1.878906 2.984375 -1.625 2.671875 -1.46875 C 2.359375 -1.3125 1.976562 -1.234375 1.53125 -1.234375 C 1.363281 -1.234375 1.210938 -1.238281 1.078125 -1.25 C 1.085938 -1.039062 1.144531 -0.882812 1.25 -0.78125 C 1.351562 -0.675781 1.5 -0.625 1.6875 -0.625 C 1.863281 -0.625 2.007812 -0.65625 2.125 -0.71875 C 2.238281 -0.789062 2.34375 -0.898438 2.4375 -1.046875 L 2.5 -1.046875 L 3.015625 -0.6875 C 2.921875 -0.53125 2.8125 -0.394531 2.6875 -0.28125 C 2.5625 -0.175781 2.40625 -0.09375 2.21875 -0.03125 C 2.039062 0.03125 1.816406 0.0625 1.546875 0.0625 C 1.296875 0.0625 1.070312 0.0078125 0.875 -0.09375 C 0.6875 -0.195312 0.535156 -0.347656 0.421875 -0.546875 C 0.316406 -0.753906 0.265625 -0.992188 0.265625 -1.265625 C 0.265625 -1.429688 0.285156 -1.601562 0.328125 -1.78125 C 0.390625 -2.082031 0.507812 -2.34375 0.6875 -2.5625 C 0.863281 -2.789062 1.078125 -2.960938 1.328125 -3.078125 C 1.578125 -3.203125 1.847656 -3.265625 2.140625 -3.265625 C 2.378906 -3.265625 2.582031 -3.222656 2.75 -3.140625 C 2.925781 -3.066406 3.054688 -2.96875 3.140625 -2.84375 C 3.222656 -2.71875 3.265625 -2.578125 3.265625 -2.421875 C 3.265625 -2.347656 3.257812 -2.285156 3.25 -2.234375 Z M 2.0625 -2.640625 C 1.9375 -2.640625 1.8125 -2.609375 1.6875 -2.546875 C 1.570312 -2.492188 1.46875 -2.410156 1.375 -2.296875 C 1.28125 -2.179688 1.207031 -2.039062 1.15625 -1.875 C 1.3125 -1.863281 1.453125 -1.859375 1.578125 -1.859375 C 1.847656 -1.859375 2.0625 -1.890625 2.21875 -1.953125 C 2.375 -2.023438 2.46875 -2.144531 2.5 -2.3125 C 2.5 -2.332031 2.5 -2.347656 2.5 -2.359375 C 2.5 -2.441406 2.457031 -2.507812 2.375 -2.5625 C 2.300781 -2.613281 2.195312 -2.640625 2.0625 -2.640625 Z M 2.0625 -2.640625 "/></g></g><g transform="translate(173.194477, 5.346384)"><g><path d="M 0.125 0 L 0.796875 -3.203125 L 1.578125 -3.203125 L 1.484375 -2.71875 L 1.53125 -2.703125 C 1.644531 -2.890625 1.769531 -3.023438 1.90625 -3.109375 C 2.050781 -3.191406 2.21875 -3.234375 2.40625 -3.234375 C 2.5 -3.234375 2.578125 -3.222656 2.640625 -3.203125 C 2.710938 -3.191406 2.765625 -3.171875 2.796875 -3.140625 L 2.546875 -2.4375 L 2.484375 -2.421875 C 2.378906 -2.460938 2.265625 -2.484375 2.140625 -2.484375 C 1.679688 -2.484375 1.378906 -2.15625 1.234375 -1.5 L 0.921875 0 Z M 0.125 0 "/></g></g><g transform="translate(175.703494, 5.346384)"><g><path d="M 3.25 -2.234375 C 3.175781 -1.878906 2.984375 -1.625 2.671875 -1.46875 C 2.359375 -1.3125 1.976562 -1.234375 1.53125 -1.234375 C 1.363281 -1.234375 1.210938 -1.238281 1.078125 -1.25 C 1.085938 -1.039062 1.144531 -0.882812 1.25 -0.78125 C 1.351562 -0.675781 1.5 -0.625 1.6875 -0.625 C 1.863281 -0.625 2.007812 -0.65625 2.125 -0.71875 C 2.238281 -0.789062 2.34375 -0.898438 2.4375 -1.046875 L 2.5 -1.046875 L 3.015625 -0.6875 C 2.921875 -0.53125 2.8125 -0.394531 2.6875 -0.28125 C 2.5625 -0.175781 2.40625 -0.09375 2.21875 -0.03125 C 2.039062 0.03125 1.816406 0.0625 1.546875 0.0625 C 1.296875 0.0625 1.070312 0.0078125 0.875 -0.09375 C 0.6875 -0.195312 0.535156 -0.347656 0.421875 -0.546875 C 0.316406 -0.753906 0.265625 -0.992188 0.265625 -1.265625 C 0.265625 -1.429688 0.285156 -1.601562 0.328125 -1.78125 C 0.390625 -2.082031 0.507812 -2.34375 0.6875 -2.5625 C 0.863281 -2.789062 1.078125 -2.960938 1.328125 -3.078125 C 1.578125 -3.203125 1.847656 -3.265625 2.140625 -3.265625 C 2.378906 -3.265625 2.582031 -3.222656 2.75 -3.140625 C 2.925781 -3.066406 3.054688 -2.96875 3.140625 -2.84375 C 3.222656 -2.71875 3.265625 -2.578125 3.265625 -2.421875 C 3.265625 -2.347656 3.257812 -2.285156 3.25 -2.234375 Z M 2.0625 -2.640625 C 1.9375 -2.640625 1.8125 -2.609375 1.6875 -2.546875 C 1.570312 -2.492188 1.46875 -2.410156 1.375 -2.296875 C 1.28125 -2.179688 1.207031 -2.039062 1.15625 -1.875 C 1.3125 -1.863281 1.453125 -1.859375 1.578125 -1.859375 C 1.847656 -1.859375 2.0625 -1.890625 2.21875 -1.953125 C 2.375 -2.023438 2.46875 -2.144531 2.5 -2.3125 C 2.5 -2.332031 2.5 -2.347656 2.5 -2.359375 C 2.5 -2.441406 2.457031 -2.507812 2.375 -2.5625 C 2.300781 -2.613281 2.195312 -2.640625 2.0625 -2.640625 Z M 2.0625 -2.640625 "/></g></g></g></svg>